<svg xmlns="http://www.w3.org/2000/svg" version="1.1" xmlns:xlink="http://www.w3.org/1999/xlink" xmlns:svgjs="http://svgjs.com/svgjs" width="100%" height="100%" viewBox="0 0 1000 600"><rect width="1000" height="600" x="0" y="0" fill="#0000ff"/><g><rect width="333.3333333333333" height="333.3333333333333" rx="13.333333333333334" ry="13.333333333333334" y="371.05260921576365" fill="#ffaa55" transform="matrix(0.3583403661907264,0,0,0.3583403661907264,0,107.3134837487294)" x="348.83035278320307"/><path d="M471.5680560131717 568.4935865166169L471.5680560131717 462.719287226461L489.4844080703341 462.719287226461L489.4844080703341 568.4935865166169Q489.4844080703341 582.6514609340275 484.28470968150464 592.5421915649531Q479.0850112926752 602.4611814262528 469.61816911736065 607.57610212396Q460.1513269420462 612.7192820520413 447.29337712184287 612.7192820520413L447.29337712184287 612.7192820520413Q435.1419080609914 612.7192820520413 425.6750658856769 608.2543236529377Q416.20822371036235 603.8176244842084 410.78245147854034 595.594188445353Q405.38493847709236 587.3424931761238 405.38493847709236 576.0105417961204L405.38493847709236 576.0105417961204L422.99043900013993 576.0105417961204Q422.99043900013993 582.2840909391646 426.1554728020361 586.9468639508866Q429.29224737355827 591.6096369626086 434.77453806612846 594.2094861570235Q440.28508798907274 596.8093353514382 447.29337712184287 596.8093353514382L447.29337712184287 596.8093353514382Q455.00814701396484 596.8093353514382 460.43391924578685 593.5595238584199Q465.8596914776089 590.3097123654013 468.71387374539034 583.979644761609Q471.5680560131717 577.6778363881906 471.5680560131717 568.4935865166169L471.5680560131717 568.4935865166169ZM543.2334642418214 610.6846174651082L525.317112184659 610.6846174651082L525.317112184659 462.719287226461L575.3076907163943 462.719287226461Q592.7153766268234 462.719287226461 603.821254163834 468.9645771391312Q614.8988724704709 475.2098670518014 620.2681262415447 485.83533767245285Q625.6091207822446 496.4608082931044 625.6091207822446 509.5165727259262L625.6091207822446 509.5165727259262Q625.6091207822446 522.6005963891221 620.2963854719189 533.3108447008958Q614.983650161593 543.9928337822955 603.9342910853304 550.3229013860878Q592.8849320090678 556.6247097595062 575.5902830201351 556.6247097595062L575.5902830201351 556.6247097595062L539.7575789058103 556.6247097595062L539.7575789058103 540.7430222892771L575.0250984126535 540.7430222892771Q586.9504936305125 540.7430222892771 594.1848566062752 536.6171746546624Q601.3909603516638 532.5195862504218 604.6972903054304 525.4547786569035Q607.9753610288228 518.4182302937593 607.9753610288228 509.5165727259262L607.9753610288228 509.5165727259262Q607.9753610288228 500.64317438846723 604.6972903054304 493.6348852556971Q601.3909603516638 486.6265961229269 594.1000789151531 482.61378540980854Q586.8091974786421 478.6009746966902 574.742506108913 478.6009746966902L574.742506108913 478.6009746966902L543.2334642418214 478.6009746966902L543.2334642418214 610.6846174651082Z " fill="#0000ff" transform="matrix(0.3583403661907264,0,0,0.3583403661907264,0,107.3134837487294)"/><path d="M817.8595305534684 546.4053847417854L817.8595305534684 462.7192868662802L832.0345201481973 462.7192868662802L832.0345201481973 546.4053847417854Q832.0345201481973 557.6067566455065 827.9206430418407 565.432066358685Q823.806765935484 573.2797340996153 816.3168266385846 577.3265371227162Q808.8268873416854 581.3956981735689 798.6539847145533 581.3956981735689L798.6539847145533 581.3956981735689Q789.0400327812199 581.3956981735689 781.5500934843205 577.8631297887625Q774.0601541874212 574.3529194317084 769.767412859049 567.8467333558942Q765.4970295584288 561.3181892523282 765.4970295584288 552.352620123801L765.4970295584288 552.352620123801L779.4260808478864 552.352620123801Q779.4260808478864 557.3161022847313 781.9301799561034 561.0051768638011Q784.4119210365686 564.694251442871 788.7493784204447 566.7511899960493Q793.1091938320727 568.8081285492276 798.6539847145533 568.8081285492276L798.6539847145533 568.8081285492276Q804.7577262908325 568.8081285492276 809.0504676192047 566.2369553577547Q813.3432089475768 563.6657821662818 815.6013697505226 558.6575839498475Q817.8595305534684 553.6717437611653 817.8595305534684 546.4053847417854L817.8595305534684 546.4053847417854ZM894.2345533540897 581.6192784510883L894.2345533540897 581.6192784510883Q882.3400825900585 581.6192784510883 873.3968714892832 575.9626974298478Q864.4313023607559 570.3061164086075 859.4454621720737 560.1108557537236Q854.4372639556395 549.9379531265917 854.4372639556395 536.3442722534132L854.4372639556395 536.3442722534132Q854.4372639556395 522.616443213723 859.4454621720737 512.3988245310873Q864.4313023607559 502.15884782069946 873.3968714892832 496.50226679945905Q882.3400825900585 490.84568577821864 894.2345533540897 490.84568577821864L894.2345533540897 490.84568577821864Q906.106666090369 490.84568577821864 915.0722352188964 496.50226679945905Q924.0154463196716 502.15884782069946 929.0012865083538 512.3988245310873Q934.0094847247881 522.616443213723 934.0094847247881 536.3442722534132L934.0094847247881 536.3442722534132Q934.0094847247881 549.9379531265917 929.0012865083538 560.1108557537236Q924.0154463196716 570.3061164086075 915.0722352188964 575.9626974298478Q906.106666090369 581.6192784510883 894.2345533540897 581.6192784510883ZM894.2345533540897 569.5012274095377L894.2345533540897 569.5012274095377Q903.2671965658728 569.5012274095377 909.0802837813768 564.8731156648864Q914.9157290246327 560.2450039202351 917.710482493625 552.6879905400801Q920.5275939903693 545.1533351876769 920.5275939903693 536.3442722534132L920.5275939903693 536.3442722534132Q920.5275939903693 527.5352093191495 917.710482493625 519.9334798834905Q914.9157290246327 512.3317504478314 909.0802837813768 507.63656461992434Q903.2671965658728 502.9637368197692 894.2345533540897 502.9637368197692L894.2345533540897 502.9637368197692Q885.2019101423067 502.9637368197692 879.3664648990507 507.63656461992434Q873.5310196557948 512.3317504478314 870.7362661868026 519.9334798834905Q867.9191546900583 527.5352093191495 867.9191546900583 536.3442722534132L867.9191546900583 536.3442722534132Q867.9191546900583 545.1533351876769 870.7362661868026 552.6879905400801Q873.5310196557948 560.2450039202351 879.3664648990507 564.8731156648864Q885.2019101423067 569.5012274095377 894.2345533540897 569.5012274095377ZM991.4025419640138 581.6192784510883L991.4025419640138 581.6192784510883Q978.7255402286647 581.6192784510883 969.5363908226182 575.9850554575999Q960.3695994443234 570.3508324641114 955.428475311145 560.2002878647313Q950.4649931502147 550.0497432653514 950.4649931502147 536.5678525309326L950.4649931502147 536.5678525309326Q950.4649931502147 523.0859617965137 955.428475311145 512.7565529751182Q960.3695994443234 502.44950218147466 969.2457364618429 496.6364149659707Q978.1442315071143 490.84568577821864 990.0387022711456 490.84568577821864L990.0387022711456 490.84568577821864Q996.9026167909906 490.84568577821864 1003.5876670888201 493.1262046089164Q1010.2727173866497 495.40672343961404 1015.7504341858746 500.5267117948079Q1021.2505090128515 505.64670015000183 1024.5147810646345 514.0533185847306Q1027.7566950886658 522.4599370194594 1027.7566950886658 534.7344942552736L1027.7566950886658 534.7344942552736L1027.7566950886658 540.4581493597698L960.0789450835482 540.4581493597698L960.0789450835482 528.787258873258L1014.0512240767273 528.787258873258Q1014.0512240767273 521.3643936596145 1011.0999644134714 515.5289484163586Q1008.1487047502155 509.69350317310267 1002.7604200619985 506.31744098255996Q997.3497773460294 502.9637368197692 990.0387022711456 502.9637368197692L990.0387022711456 502.9637368197692Q981.9674542526958 502.9637368197692 976.109650981688 506.9211077318623Q970.2518477106801 510.90083667170734 967.0993657976568 517.2505165532577Q963.9692419123854 523.6001964348084 963.9692419123854 530.8441974264363L963.9692419123854 530.8441974264363L963.9692419123854 538.6247910841109Q963.9692419123854 548.5741134337234 967.4347362139359 555.4603859813204Q970.8778724877343 562.3466585289175 977.0486881472693 565.9239429692276Q983.2418618345563 569.5012274095377 991.4025419640138 569.5012274095377L991.4025419640138 569.5012274095377Q996.7237525689751 569.5012274095377 1001.0388519250992 567.980881522406Q1005.3539512812233 566.460535635274 1008.5064331942466 563.3974858332585Q1011.636557079518 560.3567940589949 1013.3581252164172 555.7733983698477L1013.3581252164172 555.7733983698477L1026.3928553957971 559.4401149211654Q1024.335916842619 566.0580911357392 1019.4842248204483 571.0662893521733Q1014.6101747705258 576.0744875686075 1007.4779639176575 578.8468830098479Q1000.3233950370372 581.6192784510883 991.4025419640138 581.6192784510883ZM1109.6317927162636 579.7859201754293L1095.456803121535 579.7859201754293L1095.456803121535 462.7192868662802L1135.0081542147136 462.7192868662802Q1148.780699309908 462.7192868662802 1157.5674042164196 467.6604109994586Q1166.3317510951792 472.60153513263697 1170.5574183402955 481.00815356736575Q1174.7830855854122 489.4147720020946 1174.7830855854122 499.7441808234901L1174.7830855854122 499.7441808234901Q1174.7830855854122 510.0959476726375 1170.5797763680475 518.5696401906222Q1166.3988251784353 527.0209746808548 1157.6344782996753 532.0291728972891Q1148.8924894486677 537.0150130859713 1135.231734492233 537.0150130859713L1135.231734492233 537.0150130859713L1106.8817553027752 537.0150130859713L1106.8817553027752 524.449801489382L1134.7845739371942 524.449801489382Q1144.2196616485126 524.449801489382 1149.9209587252567 521.1855294375989Q1155.6446138297529 517.9436154135678 1158.238145048978 512.3541084755833Q1160.8540342959545 506.7869595653507 1160.8540342959545 499.7441808234901L1160.8540342959545 499.7441808234901Q1160.8540342959545 492.7237601093815 1158.238145048978 487.1789692269008Q1155.6446138297529 481.63417834442004 1149.8762426697526 478.4593384036448Q1144.0855134820008 475.2844984628696 1134.5386356319232 475.2844984628696L1134.5386356319232 475.2844984628696L1109.6317927162636 475.2844984628696L1109.6317927162636 579.7859201754293ZM1231.7289822695989 581.6192784510883L1231.7289822695989 581.6192784510883Q1219.029622506498 581.6192784510883 1209.8628311282032 575.9850554575999Q1200.6960397499088 570.3508324641114 1195.7325575889781 560.2002878647313Q1190.7914334558 550.0497432653514 1190.7914334558 536.5678525309326L1190.7914334558 536.5678525309326Q1190.7914334558 523.0859617965137 1195.7325575889781 512.7565529751182Q1200.6960397499088 502.44950218147466 1209.5721767674281 496.6364149659707Q1218.4706718126995 490.84568577821864 1230.3651425767307 490.84568577821864L1230.3651425767307 490.84568577821864Q1237.206699068824 490.84568577821864 1243.9141073944052 493.1262046089164Q1250.5991576922352 495.40672343961404 1256.0768744914599 500.5267117948079Q1261.5769493184366 505.64670015000183 1264.818863342468 514.0533185847306Q1268.0831353942508 522.4599370194594 1268.0831353942508 534.7344942552736L1268.0831353942508 534.7344942552736L1268.0831353942508 540.4581493597698L1200.4053853891337 540.4581493597698L1200.4053853891337 528.787258873258L1254.3776643823126 528.787258873258Q1254.3776643823126 521.3643936596145 1251.4264047190568 515.5289484163586Q1248.475145055801 509.69350317310267 1243.0868603675835 506.31744098255996Q1237.6762176516145 502.9637368197692 1230.3651425767307 502.9637368197692L1230.3651425767307 502.9637368197692Q1222.293894558281 502.9637368197692 1216.436091287273 506.9211077318623Q1210.5782880162656 510.90083667170734 1207.425806103242 517.2505165532577Q1204.2956822179708 523.6001964348084 1204.2956822179708 530.8441974264363L1204.2956822179708 530.8441974264363L1204.2956822179708 538.6247910841109Q1204.2956822179708 548.5741134337234 1207.738818491769 555.4603859813204Q1211.2043127933198 562.3466585289175 1217.3751284528548 565.9239429692276Q1223.5459441123894 569.5012274095377 1231.7289822695989 569.5012274095377L1231.7289822695989 569.5012274095377Q1237.0501928745603 569.5012274095377 1241.3652922306846 567.980881522406Q1245.6803915868086 566.460535635274 1248.8105154720797 563.3974858332585Q1251.9629973851033 560.3567940589949 1253.6845655220027 555.7733983698477L1253.6845655220027 555.7733983698477L1266.7192957013826 559.4401149211654Q1264.6623571482041 566.0580911357392 1259.7883070982816 571.0662893521733Q1254.9366150761111 576.0744875686075 1247.7820461954907 578.8468830098479Q1240.6498353426223 581.6192784510883 1231.7289822695989 581.6192784510883ZM1302.1567696882048 579.7859201754293L1288.674878953786 579.7859201754293L1288.674878953786 491.9859451935675L1301.709609133166 491.9859451935675L1301.709609133166 505.2442556504669L1302.6039302432437 505.2442556504669Q1305.018597240453 498.71571154690093 1311.3012030387476 494.6689085238001Q1317.5838088370424 490.59974747294734 1325.4761926334763 490.59974747294734L1325.4761926334763 490.59974747294734Q1326.9741804928562 490.59974747294734 1329.187625240298 490.6668215562031Q1331.423428015492 490.711537611707 1332.5636874308411 490.84568577821864L1332.5636874308411 490.84568577821864L1332.5636874308411 504.5511567901568Q1331.8929465982828 504.39465059589327 1329.4559215733216 504.01456412411034Q1327.0188965483603 503.63447765232735 1324.3359332181276 503.63447765232735L1324.3359332181276 503.63447765232735Q1317.9415372810731 503.63447765232735 1312.9333390646389 506.29508295480804Q1307.925140848205 508.95568825728867 1305.040955268205 513.6061580296919Q1302.1567696882048 518.278985829847 1302.1567696882048 524.2262212118626L1302.1567696882048 524.2262212118626L1302.1567696882048 579.7859201754293ZM1376.6984342131673 533.3706545624054L1361.15960492557 547.7692244346537L1360.9136666202985 531.0901357317077L1363.6637040337873 531.0901357317077L1402.0747957116173 491.9859451935675L1418.7762424423154 491.9859451935675L1377.838693628516 533.3706545624054L1376.6984342131673 533.3706545624054ZM1362.0762840633997 579.7859201754293L1348.5720353012289 579.7859201754293L1348.5720353012289 462.7192868662802L1362.0762840633997 462.7192868662802L1362.0762840633997 579.7859201754293ZM1421.5262798558033 579.7859201754293L1404.3776725700668 579.7859201754293L1370.0804579985934 536.3442722534132L1379.672051904175 526.953900597599L1421.5262798558033 579.7859201754293ZM1498.3484632114637 511.6386515875213L1498.3484632114637 511.6386515875213L1486.230412169913 515.0817878613198Q1485.0901527545643 512.0410960870562 1482.8767080071225 509.1569105070561Q1480.6856212874327 506.2727249270561 1476.9071145973548 504.39465059589327Q1473.1286079072775 502.4942182369785 1467.2484466085175 502.4942182369785L1467.2484466085175 502.4942182369785Q1459.1995566178198 502.4942182369785 1453.8559879851064 506.1832928160483Q1448.4900613246414 509.87236739511815 1448.4900613246414 515.5289484163586L1448.4900613246414 515.5289484163586Q1448.4900613246414 520.5595046605447 1452.156777875959 523.4884062960487Q1455.8234944272772 526.3949499038006 1463.5817300571994 528.3400983182192L1463.5817300571994 528.3400983182192L1476.6164602365793 531.5372962867464Q1488.3991408618513 534.3991238389945 1494.167512021851 540.2569271100024Q1499.9582412096033 546.1147303810102 1499.9582412096033 555.3262378148088L1499.9582412096033 555.3262378148088Q1499.9582412096033 562.860893167212 1495.6431418534794 568.8081285492276Q1491.328042497355 574.7553639312432 1483.5921648951844 578.1761421772899Q1475.8786453207658 581.6192784510883 1465.66102663813 581.6192784510883L1465.66102663813 581.6192784510883Q1452.2238519592147 581.6192784510883 1443.414789024951 575.7838332078325Q1434.6057260906873 569.9483879645766 1432.2581331767342 558.7470160608555L1432.2581331767342 558.7470160608555L1445.0692830785947 555.5498180923282Q1446.9026413542538 562.6373128896926 1452.0226297094473 566.169881274499Q1457.1426180646413 569.7248076870571 1465.4150883328584 569.7248076870571L1465.4150883328584 569.7248076870571Q1474.8501760441764 569.7248076870571 1480.4173249544092 565.7003626917083Q1486.0068318923936 561.6535596686074 1486.0068318923936 555.996978647367L1486.0068318923936 555.996978647367Q1486.0068318923936 551.4359409859715 1482.8096339238664 548.3058171007001Q1479.5900779275876 545.1980512431808 1472.9721017130137 543.655347328297L1472.9721017130137 543.655347328297L1458.327593535494 540.2345690822503Q1446.276616577199 537.3727415300023 1440.642393583711 531.336074036979Q1435.0081705902226 525.2994065439557 1435.0081705902226 516.2220472766687L1435.0081705902226 516.2220472766687Q1435.0081705902226 508.7768240352732 1439.2114798075868 503.0755269585289Q1443.414789024951 497.3518718540327 1450.7035060720832 494.0875998022497Q1457.992223119215 490.84568577821864 1467.2484466085175 490.84568577821864L1467.2484466085175 490.84568577821864Q1480.2831767878974 490.84568577821864 1487.750758057045 496.54698285496295Q1495.1959812984405 502.2706379594591 1498.3484632114637 511.6386515875213ZM1564.6623735237126 523.3095420740331L1615.8846151034036 523.3095420740331L1615.8846151034036 535.8747536706225L1564.6623735237126 535.8747536706225L1564.6623735237126 523.3095420740331ZM1722.8901359241804 579.7859201754293L1722.8901359241804 579.7859201754293L1686.759563077048 579.7859201754293L1686.759563077048 462.7192868662802L1724.49991392232 462.7192868662802Q1741.5367310692968 462.7192868662802 1753.6547821108475 469.7173495526369Q1765.772833152398 476.7154122389936 1772.2343031727082 489.7725004461256Q1778.6957731930183 502.85194668100957 1778.6957731930183 521.0290232433354L1778.6957731930183 521.0290232433354Q1778.6957731930183 539.317889944421 1772.1672290894526 552.4867682903126Q1765.6610430136384 565.6556466362043 1753.185263528057 572.7207834058167Q1740.7318420702272 579.7859201754293 1722.8901359241804 579.7859201754293ZM1700.934552671777 475.2844984628696L1700.934552671777 567.1983505510881L1721.973456786351 567.1983505510881Q1736.506174825111 567.1983505510881 1746.0530526751886 561.6088436131035Q1755.5999305252662 555.996978647367 1760.2727583254214 545.6675698259714Q1764.9679441533285 535.315802976824 1764.9679441533285 521.0290232433354L1764.9679441533285 521.0290232433354Q1764.9679441533285 506.8316756208545 1760.339832408677 496.5916989104668Q1755.711720664026 486.32936417232713 1746.5002132302275 480.80693131759836Q1737.3110638241806 475.2844984628696 1723.5832347844907 475.2844984628696L1723.5832347844907 475.2844984628696L1700.934552671777 475.2844984628696ZM1837.4526701251125 581.6192784510883L1837.4526701251125 581.6192784510883Q1824.7533103620112 581.6192784510883 1815.5865189837168 575.9850554575999Q1806.419727605422 570.3508324641114 1801.4786034722438 560.2002878647313Q1796.5151213113131 550.0497432653514 1796.5151213113131 536.5678525309326L1796.5151213113131 536.5678525309326Q1796.5151213113131 523.0859617965137 1801.4786034722438 512.7565529751182Q1806.419727605422 502.44950218147466 1815.2958646229413 496.6364149659707Q1824.194359668213 490.84568577821864 1836.0888304322443 490.84568577821864L1836.0888304322443 490.84568577821864Q1842.9527449520892 490.84568577821864 1849.6377952499188 493.1262046089164Q1856.3228455477483 495.40672343961404 1861.800562346973 500.5267117948079Q1867.3006371739498 505.64670015000183 1870.542551197981 514.0533185847306Q1873.8068232497644 522.4599370194594 1873.8068232497644 534.7344942552736L1873.8068232497644 534.7344942552736L1873.8068232497644 540.4581493597698L1806.1290732446469 540.4581493597698L1806.1290732446469 528.787258873258L1860.1013522378257 528.787258873258Q1860.1013522378257 521.3643936596145 1857.15009257457 515.5289484163586Q1854.1988329113142 509.69350317310267 1848.8105482230972 506.31744098255996Q1843.399905507128 502.9637368197692 1836.0888304322443 502.9637368197692L1836.0888304322443 502.9637368197692Q1828.0175824137946 502.9637368197692 1822.1597791427866 506.9211077318623Q1816.3019758717787 510.90083667170734 1813.1494939587556 517.2505165532577Q1810.019370073484 523.6001964348084 1810.019370073484 530.8441974264363L1810.019370073484 530.8441974264363L1810.019370073484 538.6247910841109Q1810.019370073484 548.5741134337234 1813.4625063472827 555.4603859813204Q1816.928000648833 562.3466585289175 1823.098816308368 565.9239429692276Q1829.269631967903 569.5012274095377 1837.4526701251125 569.5012274095377L1837.4526701251125 569.5012274095377Q1842.7738807300739 569.5012274095377 1847.0889800861978 567.980881522406Q1851.4040794423217 566.460535635274 1854.5565613553454 563.3974858332585Q1857.6866852406165 560.3567940589949 1859.4082533775158 555.7733983698477L1859.4082533775158 555.7733983698477L1872.4429835568958 559.4401149211654Q1870.3860450037173 566.0580911357392 1865.5119949537952 571.0662893521733Q1860.6603029316243 576.0744875686075 1853.5280920787563 578.8468830098479Q1846.373523198136 581.6192784510883 1837.4526701251125 581.6192784510883ZM1948.8180063575173 491.9859451935675L1963.4401565072849 491.9859451935675L1930.9763002114705 579.7859201754293L1917.2484711717802 579.7859201754293L1884.7846148759659 491.9859451935675L1899.4291230534855 491.9859451935675L1923.6652251365867 561.9442140293825L1924.581904274416 561.9442140293825L1948.8180063575173 491.9859451935675ZM2014.8859783644948 581.6192784510883L2014.8859783644948 581.6192784510883Q2002.208976629146 581.6192784510883 1993.0198272230991 575.9850554575999Q1983.8530358448047 570.3508324641114 1978.9119117116265 560.2002878647313Q1973.970787578448 550.0497432653514 1973.970787578448 536.5678525309326L1973.970787578448 536.5678525309326Q1973.970787578448 523.0859617965137 1978.9119117116265 512.7565529751182Q1983.8530358448047 502.44950218147466 1992.751530890076 496.6364149659707Q2001.6276679075954 490.84568577821864 2013.5221386716266 490.84568577821864L2013.5221386716266 490.84568577821864Q2020.386053191472 490.84568577821864 2027.0711034893015 493.1262046089164Q2033.756153787131 495.40672343961404 2039.2562286141078 500.5267117948079Q2044.7339454133325 505.64670015000183 2047.9982174651159 514.0533185847306Q2051.2624895168988 522.4599370194594 2051.2624895168988 534.7344942552736L2051.2624895168988 534.7344942552736L2051.2624895168988 540.4581493597698L1983.5623814840292 540.4581493597698L1983.5623814840292 528.787258873258L2037.5346604772085 528.787258873258Q2037.5346604772085 521.3643936596145 2034.5834008139527 515.5289484163586Q2031.6544991784485 509.69350317310267 2026.24385646248 506.31744098255996Q2020.8332137465109 502.9637368197692 2013.5221386716266 502.9637368197692L2013.5221386716266 502.9637368197692Q2005.473248680929 502.9637368197692 1999.5930873821694 506.9211077318623Q1993.7352841111615 510.90083667170734 1990.60516022589 517.2505165532577Q1987.4526783128667 523.6001964348084 1987.4526783128667 530.8441974264363L1987.4526783128667 530.8441974264363L1987.4526783128667 538.6247910841109Q1987.4526783128667 548.5741134337234 1990.918172614417 555.4603859813204Q1994.3836669159678 562.3466585289175 2000.5544825755028 565.9239429692276Q2006.7252982350374 569.5012274095377 2014.8859783644948 569.5012274095377L2014.8859783644948 569.5012274095377Q2020.2071889694562 569.5012274095377 2024.5222883255806 567.980881522406Q2028.8373876817045 566.460535635274 2031.9898695947277 563.3974858332585Q2035.1423515077513 560.3567940589949 2036.8415616168986 555.7733983698477L2036.8415616168986 555.7733983698477L2049.8762917962786 559.4401149211654Q2047.8193532431 566.0580911357392 2042.9676612209296 571.0662893521733Q2038.093611171007 576.0744875686075 2030.9614003181387 578.8468830098479Q2023.8068314375182 581.6192784510883 2014.8859783644948 581.6192784510883ZM2071.831875048682 462.7192868662802L2085.3137657831007 462.7192868662802L2085.3137657831007 579.7859201754293L2071.831875048682 579.7859201754293L2071.831875048682 462.7192868662802ZM2145.680440713334 581.6192784510883L2145.680440713334 581.6192784510883Q2133.8083279770553 581.6192784510883 2124.842758848528 575.9626974298478Q2115.8995477477524 570.3061164086075 2110.91370755907 560.1108557537236Q2105.905509342636 549.9379531265917 2105.905509342636 536.3442722534132L2105.905509342636 536.3442722534132Q2105.905509342636 522.616443213723 2110.91370755907 512.3988245310873Q2115.8995477477524 502.15884782069946 2124.842758848528 496.50226679945905Q2133.8083279770553 490.84568577821864 2145.680440713334 490.84568577821864L2145.680440713334 490.84568577821864Q2157.5749114773657 490.84568577821864 2166.5181225781407 496.50226679945905Q2175.483691706668 502.15884782069946 2180.4695318953504 512.3988245310873Q2185.4777301117847 522.616443213723 2185.4777301117847 536.3442722534132L2185.4777301117847 536.3442722534132Q2185.4777301117847 549.9379531265917 2180.4695318953504 560.1108557537236Q2175.483691706668 570.3061164086075 2166.5181225781407 575.9626974298478Q2157.5749114773657 581.6192784510883 2145.680440713334 581.6192784510883ZM2145.680440713334 569.5012274095377L2145.680440713334 569.5012274095377Q2154.7130839251176 569.5012274095377 2160.548529168373 564.8731156648864Q2166.3839744116294 560.2450039202351 2169.1787278806214 552.6879905400801Q2171.995839377366 545.1533351876769 2171.995839377366 536.3442722534132L2171.995839377366 536.3442722534132Q2171.995839377366 527.5352093191495 2169.1787278806214 519.9334798834905Q2166.3839744116294 512.3317504478314 2160.548529168373 507.63656461992434Q2154.7130839251176 502.9637368197692 2145.680440713334 502.9637368197692L2145.680440713334 502.9637368197692Q2136.6477975015514 502.9637368197692 2130.834710286047 507.63656461992434Q2124.999265042791 512.3317504478314 2122.2045115737988 519.9334798834905Q2119.3874000770547 527.5352093191495 2119.3874000770547 536.3442722534132L2119.3874000770547 536.3442722534132Q2119.3874000770547 545.1533351876769 2122.2045115737988 552.6879905400801Q2124.999265042791 560.2450039202351 2130.834710286047 564.8731156648864Q2136.6477975015514 569.5012274095377 2145.680440713334 569.5012274095377ZM2219.5513644057387 612.7192950540345L2206.047115643568 612.7192950540345L2206.047115643568 491.9859451935675L2219.081845822948 491.9859451935675L2219.081845822948 505.937354510777L2220.6916238210874 505.937354510777Q2222.1672536527153 503.63447765232735 2224.827858955196 500.07955123976916Q2227.4884642576767 496.50226679945905 2232.496662474111 493.6627972749628Q2237.5048606905452 490.84568577821864 2246.0679853195375 490.84568577821864L2246.0679853195375 490.84568577821864Q2257.157567084499 490.84568577821864 2265.6312596024836 496.39047666069933Q2274.082594092716 501.93526754318003 2278.822495976127 512.108170170312Q2283.562397859538 522.2810727974439 2283.562397859538 536.1206919758938L2283.562397859538 536.1206919758938Q2283.562397859538 550.0497432653514 2278.822495976127 560.2673619479872Q2274.082594092716 570.4626226028711 2265.6759756579872 576.0521295408557Q2257.2693572232583 581.6192784510883 2246.291565597057 581.6192784510883L2246.291565597057 581.6192784510883Q2237.8402311068244 581.6192784510883 2232.7426007793824 578.7798089265921Q2227.6673284796925 575.9626974298478 2224.9172910662037 572.318338906282Q2222.1672536527153 568.6963384104679 2220.6916238210874 566.3040294410105L2220.6916238210874 566.3040294410105L2219.5513644057387 566.3040294410105L2219.5513644057387 612.7192950540345ZM2219.3277841282193 535.8747536706225L2219.3277841282193 535.8747536706225Q2219.3277841282193 545.824076020235 2222.234327735971 553.403447428142Q2225.1408713437236 560.9828188360492 2230.75273630946 565.2308441089175Q2236.3646012751965 569.5012274095377 2244.48056534915 569.5012274095377L2244.48056534915 569.5012274095377Q2252.931899839383 569.5012274095377 2258.610838888375 565.0072638313982Q2264.3121359651195 560.5133002532584 2267.196321545119 552.8892127898475Q2270.0805071251193 545.2651253264366 2270.0805071251193 535.8747536706225L2270.0805071251193 535.8747536706225Q2270.0805071251193 526.61853018132 2267.2410376006233 519.1509489121726Q2264.423926103879 511.7057256707771 2258.7449870548867 507.3235522313972Q2253.043689978142 502.9637368197692 2244.48056534915 502.9637368197692L2244.48056534915 502.9637368197692Q2236.2304531086847 502.9637368197692 2230.6409461707 507.0999719538778Q2225.0290812049634 511.23620708798643 2222.1672536527153 518.6367142738779Q2219.3277841282193 526.0595794875215 2219.3277841282193 535.8747536706225ZM2340.9778131265157 581.6192784510883L2340.9778131265157 581.6192784510883Q2328.278453363415 581.6192784510883 2319.11166198512 575.9850554575999Q2309.9225125790736 570.3508324641114 2304.981388445895 560.2002878647313Q2300.0402643127168 550.0497432653514 2300.0402643127168 536.5678525309326L2300.0402643127168 536.5678525309326Q2300.0402643127168 523.0859617965137 2304.981388445895 512.7565529751182Q2309.9225125790736 502.44950218147466 2318.821007624345 496.6364149659707Q2327.6971446418647 490.84568577821864 2339.5916154058955 490.84568577821864L2339.5916154058955 490.84568577821864Q2346.455529925741 490.84568577821864 2353.1405802235704 493.1262046089164Q2359.8256305213995 495.40672343961404 2365.3257053483767 500.5267117948079Q2370.8034221476014 505.64670015000183 2374.0676941993843 514.0533185847306Q2377.3319662511676 522.4599370194594 2377.3319662511676 534.7344942552736L2377.3319662511676 534.7344942552736L2377.3319662511676 540.4581493597698L2309.631858218298 540.4581493597698L2309.631858218298 528.787258873258L2363.6041372114773 528.787258873258Q2363.6041372114773 521.3643936596145 2360.652877548221 515.5289484163586Q2357.7239759127174 509.69350317310267 2352.3133331967483 506.31744098255996Q2346.9026904807793 502.9637368197692 2339.5916154058955 502.9637368197692L2339.5916154058955 502.9637368197692Q2331.5427254151978 502.9637368197692 2325.68492214419 506.9211077318623Q2319.80476084543 510.90083667170734 2316.6746369601588 517.2505165532577Q2313.5221550471356 523.6001964348084 2313.5221550471356 530.8441974264363L2313.5221550471356 530.8441974264363L2313.5221550471356 538.6247910841109Q2313.5221550471356 548.5741134337234 2316.987649348686 555.4603859813204Q2320.4531436502366 562.3466585289175 2326.623959309771 565.9239429692276Q2332.794774969306 569.5012274095377 2340.9778131265157 569.5012274095377L2340.9778131265157 569.5012274095377Q2346.276665703725 569.5012274095377 2350.591765059849 567.980881522406Q2354.9068644159734 566.460535635274 2358.0593463289965 563.3974858332585Q2361.2118282420197 560.3567940589949 2362.911038351167 555.7733983698477L2362.911038351167 555.7733983698477L2375.945768530547 559.4401149211654Q2373.888829977369 566.0580911357392 2369.0371379551984 571.0662893521733Q2364.185445933028 576.0744875686075 2357.0308770524075 578.8468830098479Q2349.8763081717875 581.6192784510883 2340.9778131265157 581.6192784510883ZM2411.405600545121 579.7859201754293L2397.9013517829508 579.7859201754293L2397.9013517829508 491.9859451935675L2410.9360819623307 491.9859451935675L2410.9360819623307 505.2442556504669L2411.8527611001605 505.2442556504669Q2414.2450700696177 498.71571154690093 2420.5500338956645 494.6689085238001Q2426.8326396939588 490.59974747294734 2434.725023490393 490.59974747294734L2434.725023490393 490.59974747294734Q2436.200653322021 490.59974747294734 2438.436456097215 490.6668215562031Q2440.6722588724087 490.711537611707 2441.8125182877575 490.84568577821864L2441.8125182877575 490.84568577821864L2441.8125182877575 504.5511567901568Q2441.1194194274476 504.39465059589327 2438.6823944024864 504.01456412411034Q2436.2677274052767 503.63447765232735 2433.584764075044 503.63447765232735L2433.584764075044 503.63447765232735Q2427.168010110238 503.63447765232735 2422.1598118938036 506.29508295480804Q2417.1739717051214 508.95568825728867 2414.2897861251213 513.6061580296919Q2411.405600545121 518.278985829847 2411.405600545121 524.2262212118626L2411.405600545121 524.2262212118626L2411.405600545121 579.7859201754293Z " fill="#ffaa55" transform="matrix(0.3583403661907264,0,0,0.3583403661907264,0,107.3134837487294)"/></g></svg>